<svg xmlns="http://www.w3.org/2000/svg" width="64" height="64" viewBox="0 0 64 64">
  <defs>
    <linearGradient id="bucketGrad" x1="0" y1="0" x2="0" y2="1">
      <stop offset="0%" stop-color="#a855f7"/>
      <stop offset="100%" stop-color="#7e14ff"/>
    </linearGradient>
  </defs>

  <!-- confetti / surprise burst -->
  <circle cx="10" cy="14" r="2.6" fill="#47bfff"/>
  <circle cx="52" cy="10" r="2.2" fill="#facc15"/>
  <circle cx="57" cy="22" r="2.6" fill="#ff6bcb"/>
  <circle cx="6" cy="26" r="2" fill="#facc15"/>
  <rect x="46" y="30" width="4" height="4" rx="1" fill="#47bfff" transform="rotate(20 48 32)"/>
  <rect x="12" y="4" width="4" height="4" rx="1" fill="#ff6bcb" transform="rotate(-15 14 6)"/>

  <!-- bucket -->
  <path d="M14 26h36l-4.5 30a4 4 0 0 1-4 3.4H22.5a4 4 0 0 1-4-3.4L14 26z" fill="url(#bucketGrad)"/>
  <path d="M14 26h36l-1 6.5H15L14 26z" fill="#5b0fc9"/>
  <ellipse cx="32" cy="26" rx="18" ry="4.5" fill="#c084fc"/>
  <path d="M20 16c0-6 5.5-10 12-10s12 4 12 10" fill="none" stroke="#5b0fc9" stroke-width="4" stroke-linecap="round"/>

  <!-- happy sparkle face on bucket -->
  <circle cx="25.5" cy="38" r="2.3" fill="#fff"/>
  <circle cx="38.5" cy="38" r="2.3" fill="#fff"/>
  <path d="M24 46c2.8 3.2 11.2 3.2 14 0" stroke="#fff" stroke-width="3" stroke-linecap="round" fill="none"/>

  <!-- little star popping out, surprise -->
  <path d="M46 6.5l1.6 3.6 3.9.4-2.9 2.6.8 3.8-3.4-2-3.4 2 .8-3.8-2.9-2.6 3.9-.4z" fill="#facc15"/>
</svg>
